<?xml version="1.0" encoding="UTF-8" standalone="no"?>
<!DOCTYPE svg PUBLIC "-//W3C//DTD SVG 1.1//EN"
 "http://www.w3.org/Graphics/SVG/1.1/DTD/svg11.dtd">
<!-- Generated by graphviz version 2.38.0 (20140413.2041)
 -->
<!-- Title: G Pages: 1 -->
<svg width="386pt" height="346pt"
 viewBox="0.00 0.00 386.00 346.00" xmlns="http://www.w3.org/2000/svg" xmlns:xlink="http://www.w3.org/1999/xlink">
<g id="graph0" class="graph" transform="scale(1 1) rotate(0) translate(4 342)">
<title>G</title>
<polygon fill="white" stroke="none" points="-4,4 -4,-342 382,-342 382,4 -4,4"/>
<g id="clust1" class="cluster"><title>cluster_Global</title>
<path fill="none" stroke="gray" d="M20,-8C20,-8 358,-8 358,-8 364,-8 370,-14 370,-20 370,-20 370,-318 370,-318 370,-324 364,-330 358,-330 358,-330 20,-330 20,-330 14,-330 8,-324 8,-318 8,-318 8,-20 8,-20 8,-14 14,-8 20,-8"/>
<text text-anchor="middle" x="189" y="-317.2" font-family="Times New Roman,serif" font-size="11.00" fill="gray">Global</text>
</g>
<g id="clust4" class="cluster"><title>cluster_\Models</title>
<path fill="none" stroke="gray" d="M49.5,-230C49.5,-230 325.5,-230 325.5,-230 331.5,-230 337.5,-236 337.5,-242 337.5,-242 337.5,-290 337.5,-290 337.5,-296 331.5,-302 325.5,-302 325.5,-302 49.5,-302 49.5,-302 43.5,-302 37.5,-296 37.5,-290 37.5,-290 37.5,-242 37.5,-242 37.5,-236 43.5,-230 49.5,-230"/>
<text text-anchor="middle" x="187.5" y="-289.2" font-family="Times New Roman,serif" font-size="11.00" fill="gray">Models</text>
</g>
<g id="clust2" class="cluster"><title>cluster_\Http</title>
<path fill="none" stroke="gray" d="M28,-114C28,-114 350,-114 350,-114 356,-114 362,-120 362,-126 362,-126 362,-210 362,-210 362,-216 356,-222 350,-222 350,-222 28,-222 28,-222 22,-222 16,-216 16,-210 16,-210 16,-126 16,-126 16,-120 22,-114 28,-114"/>
<text text-anchor="middle" x="189" y="-209.2" font-family="Times New Roman,serif" font-size="11.00" fill="gray">Http</text>
</g>
<g id="clust3" class="cluster"><title>cluster_\Http\Controllers</title>
<path fill="none" stroke="gray" d="M36,-122C36,-122 342,-122 342,-122 348,-122 354,-128 354,-134 354,-134 354,-182 354,-182 354,-188 348,-194 342,-194 342,-194 36,-194 36,-194 30,-194 24,-188 24,-182 24,-182 24,-134 24,-134 24,-128 30,-122 36,-122"/>
<text text-anchor="middle" x="189" y="-181.2" font-family="Times New Roman,serif" font-size="11.00" fill="gray">Controllers</text>
</g>
<!-- \\Http\\Controllers\\AddressController -->
<g id="node1" class="node"><title>\\Http\\Controllers\\AddressController</title>
<polygon fill="none" stroke="black" points="346,-166 215,-166 215,-130 346,-130 346,-166"/>
<text text-anchor="middle" x="280.5" y="-145.2" font-family="Courier,monospace" font-size="11.00">AddressController</text>
</g>
<!-- \\Http\\Controllers\\BaseController -->
<g id="node2" class="node"><title>\\Http\\Controllers\\BaseController</title>
<polygon fill="none" stroke="black" points="143,-166 32,-166 32,-130 143,-130 143,-166"/>
<text text-anchor="middle" x="87.5" y="-145.2" font-family="Courier,monospace" font-size="11.00">BaseController</text>
</g>
<!-- \\Http\\Controllers\\AddressController&#45;&gt;\\Http\\Controllers\\BaseController -->
<g id="edge1" class="edge"><title>\\Http\\Controllers\\AddressController&#45;&gt;\\Http\\Controllers\\BaseController</title>
<path fill="none" stroke="black" stroke-dasharray="1,5" d="M214.836,-148C195.022,-148 173.224,-148 153.394,-148"/>
<polygon fill="none" stroke="black" points="153.225,-144.5 143.225,-148 153.225,-151.5 153.225,-144.5"/>
</g>
<!-- \\Models\\BaseModel -->
<g id="node3" class="node"><title>\\Models\\BaseModel</title>
<polygon fill="none" stroke="black" points="129.5,-274 45.5,-274 45.5,-238 129.5,-238 129.5,-274"/>
<text text-anchor="start" x="53.5" y="-259.2" font-family="Courier,monospace" font-size="11.00">«abstract»</text>
<text text-anchor="start" x="57" y="-247.2" font-family="Courier,monospace" font-size="11.00">BaseModel</text>
</g>
<!-- \\Models\\AddressModel -->
<g id="node4" class="node"><title>\\Models\\AddressModel</title>
<polygon fill="none" stroke="black" points="329.5,-274 231.5,-274 231.5,-238 329.5,-238 329.5,-274"/>
<text text-anchor="middle" x="280.5" y="-253.2" font-family="Courier,monospace" font-size="11.00">AddressModel</text>
</g>
<!-- \\Models\\AddressModel&#45;&gt;\\Models\\BaseModel -->
<g id="edge2" class="edge"><title>\\Models\\AddressModel&#45;&gt;\\Models\\BaseModel</title>
<path fill="none" stroke="black" d="M231.303,-256C203.35,-256 168.164,-256 139.713,-256"/>
<polygon fill="none" stroke="black" points="139.562,-252.5 129.562,-256 139.562,-259.5 139.562,-252.5"/>
</g>
<!-- \\RESTKernel -->
<g id="node5" class="node"><title>\\RESTKernel</title>
<polygon fill="none" stroke="black" points="322.5,-106 238.5,-106 238.5,-70 322.5,-70 322.5,-106"/>
<text text-anchor="middle" x="280.5" y="-85.2" font-family="Courier,monospace" font-size="11.00">RESTKernel</text>
</g>
<!-- \\Config -->
<g id="node6" class="node"><title>\\Config</title>
<polygon fill="none" stroke="black" points="309,-52 252,-52 252,-16 309,-16 309,-52"/>
<text text-anchor="middle" x="280.5" y="-31.2" font-family="Courier,monospace" font-size="11.00">Config</text>
</g>
</g>
</svg>
